<svg width="79" height="79" viewBox="0 0 79 79" fill="none" xmlns="http://www.w3.org/2000/svg">
<g filter="url(#filter0_d_337_1047)">
<circle cx="39.6017" cy="32.1944" r="24.1944" fill="#007AB7"/>
<path fill-rule="evenodd" clip-rule="evenodd" d="M34.8 28.6569H31.1974V40.2595H34.8V28.6569ZM35.095 24.9817C35.095 23.8281 34.1575 22.8892 33.0058 22.8892C31.8473 22.8892 30.9165 23.8281 30.9165 24.9817C30.9165 26.1352 31.8473 27.0741 33.0058 27.0741C34.1575 27.0741 35.095 26.1352 35.095 24.9817ZM40.5123 28.6568H37.0703V40.2594H40.6663V34.5185C40.6663 33.0095 40.9475 31.5407 42.8225 31.5407C44.6707 31.5407 44.6908 33.271 44.6908 34.6191V40.2594H48.2867V33.9014C48.2867 30.7761 47.6104 28.3751 43.9676 28.3751C42.2131 28.3751 41.0413 29.3342 40.5591 30.2463H40.5123V28.6568Z" fill="white"/>
</g>
<defs>
<filter id="filter0_d_337_1047" x="0.518338" y="0.555556" width="78.1664" height="78.1667" filterUnits="userSpaceOnUse" color-interpolation-filters="sRGB">
<feFlood flood-opacity="0" result="BackgroundImageFix"/>
<feColorMatrix in="SourceAlpha" type="matrix" values="0 0 0 0 0 0 0 0 0 0 0 0 0 0 0 0 0 0 127 0" result="hardAlpha"/>
<feOffset dy="7.44444"/>
<feGaussianBlur stdDeviation="7.44444"/>
<feColorMatrix type="matrix" values="0 0 0 0 0 0 0 0 0 0 0 0 0 0 0 0 0 0 0.1 0"/>
<feBlend mode="normal" in2="BackgroundImageFix" result="effect1_dropShadow_337_1047"/>
<feBlend mode="normal" in="SourceGraphic" in2="effect1_dropShadow_337_1047" result="shape"/>
</filter>
</defs>
</svg>
