<svg width="79" height="79" viewBox="0 0 79 79" fill="none" xmlns="http://www.w3.org/2000/svg">
<g filter="url(#filter0_d_337_1044)">
<circle cx="39.3981" cy="32.1944" r="24.1944" fill="#2AA3EF"/>
<path fill-rule="evenodd" clip-rule="evenodd" d="M49.324 26.0388C48.5941 26.3626 47.8081 26.5815 46.9847 26.6806C47.8256 26.1759 48.4715 25.3786 48.7751 24.4281C47.9879 24.8947 47.1167 25.2334 46.1882 25.4155C45.4454 24.6239 44.3873 24.1296 43.2159 24.1296C40.9666 24.1296 39.1423 25.9524 39.1423 28.2015C39.1423 28.5218 39.1797 28.8318 39.2486 29.1302C35.864 28.9608 32.8637 27.3385 30.855 24.8751C30.5034 25.4766 30.3037 26.1759 30.3037 26.9226C30.3037 28.3352 31.0231 29.5818 32.1151 30.3112C31.4471 30.2904 30.8187 30.1072 30.271 29.8019C30.271 29.8192 30.271 29.8365 30.271 29.8538C30.271 31.8263 31.6736 33.4717 33.5376 33.8461C33.1954 33.9395 32.8369 33.989 32.4643 33.989C32.2027 33.989 31.9469 33.9637 31.6982 33.9153C32.2167 35.533 33.721 36.7105 35.5032 36.7439C34.1087 37.835 32.3522 38.486 30.4439 38.486C30.1157 38.486 29.791 38.4676 29.4722 38.4296C31.2742 39.5852 33.415 40.2593 35.7157 40.2593C43.2066 40.2593 47.3036 34.0547 47.3036 28.6739C47.3036 28.4965 47.2989 28.3225 47.2919 28.1474C48.0872 27.5736 48.7786 26.8557 49.324 26.04V26.0388Z" fill="white"/>
</g>
<defs>
<filter id="filter0_d_337_1044" x="0.314725" y="0.555556" width="78.1664" height="78.1667" filterUnits="userSpaceOnUse" color-interpolation-filters="sRGB">
<feFlood flood-opacity="0" result="BackgroundImageFix"/>
<feColorMatrix in="SourceAlpha" type="matrix" values="0 0 0 0 0 0 0 0 0 0 0 0 0 0 0 0 0 0 127 0" result="hardAlpha"/>
<feOffset dy="7.44444"/>
<feGaussianBlur stdDeviation="7.44444"/>
<feColorMatrix type="matrix" values="0 0 0 0 0 0 0 0 0 0 0 0 0 0 0 0 0 0 0.1 0"/>
<feBlend mode="normal" in2="BackgroundImageFix" result="effect1_dropShadow_337_1044"/>
<feBlend mode="normal" in="SourceGraphic" in2="effect1_dropShadow_337_1044" result="shape"/>
</filter>
</defs>
</svg>
