<svg width="79" height="79" viewBox="0 0 79 79" fill="none" xmlns="http://www.w3.org/2000/svg">
<g filter="url(#filter0_d_337_1054)">
<circle cx="39.8058" cy="32.1944" r="24.1944" fill="#F52929"/>
<path fill-rule="evenodd" clip-rule="evenodd" d="M49.8563 24.8121C50.5109 25.5621 50.7419 27.2597 50.7419 27.2597C50.7419 27.2597 50.973 29.2731 50.973 31.2864V33.1419C50.973 35.1158 50.7419 37.1292 50.7419 37.1292C50.7419 37.1292 50.5109 38.8268 49.8563 39.5769C49.0507 40.4779 48.1406 40.5578 47.6891 40.5974C47.6658 40.5994 47.6437 40.6014 47.623 40.6033C44.504 40.8796 39.8063 40.8796 39.8063 40.8796C39.8063 40.8796 33.9919 40.8402 32.2207 40.6428C32.1266 40.6206 32.0107 40.6039 31.8789 40.5849C31.3097 40.5029 30.4442 40.3783 29.7563 39.5769C29.1018 38.8269 28.8707 37.1293 28.8707 37.1293C28.8707 37.1293 28.6396 35.1554 28.6396 33.142V31.2865C28.6396 29.2731 28.8707 27.2597 28.8707 27.2597C28.8707 27.2597 29.0632 25.5622 29.7563 24.8121C30.5619 23.911 31.472 23.8311 31.9236 23.7915C31.9468 23.7895 31.9689 23.7875 31.9896 23.7856C35.1086 23.5488 39.8063 23.5093 39.8063 23.5093C39.8063 23.5093 44.504 23.5488 47.623 23.7856C47.6551 23.7886 47.6904 23.7914 47.7285 23.7944C48.192 23.8308 49.0735 23.9 49.8563 24.8121ZM37.1108 36.7739V28.2071L44.4268 32.5892L37.1108 36.7739Z" fill="white"/>
</g>
<defs>
<filter id="filter0_d_337_1054" x="0.72244" y="0.555556" width="78.1664" height="78.1667" filterUnits="userSpaceOnUse" color-interpolation-filters="sRGB">
<feFlood flood-opacity="0" result="BackgroundImageFix"/>
<feColorMatrix in="SourceAlpha" type="matrix" values="0 0 0 0 0 0 0 0 0 0 0 0 0 0 0 0 0 0 127 0" result="hardAlpha"/>
<feOffset dy="7.44444"/>
<feGaussianBlur stdDeviation="7.44444"/>
<feColorMatrix type="matrix" values="0 0 0 0 0 0 0 0 0 0 0 0 0 0 0 0 0 0 0.1 0"/>
<feBlend mode="normal" in2="BackgroundImageFix" result="effect1_dropShadow_337_1054"/>
<feBlend mode="normal" in="SourceGraphic" in2="effect1_dropShadow_337_1054" result="shape"/>
</filter>
</defs>
</svg>
