<svg width="120" height="120" viewBox="0 0 120 120" fill="none" xmlns="http://www.w3.org/2000/svg">
<g filter="url(#filter0_d_337_931)">
<rect x="20" y="16" width="80" height="80" rx="30" fill="#29AAE3"/>
<g clip-path="url(#clip0_337_931)">
<path d="M59.1563 29.5C58.4896 29.6979 57.6876 30.4375 57.3959 31.125C57.1146 31.7813 57.0834 32.7396 57.323 33.3125L57.4896 33.7083L55.9271 35.2396C55.0626 36.0938 54.3126 36.8021 54.2605 36.8125C54.2084 36.8333 53.9688 36.7813 53.7396 36.6875C53.1251 36.4375 52.1355 36.4688 51.5105 36.7708C50.8646 37.0625 50.198 37.7813 49.948 38.4271C49.7188 39.0313 49.7709 40.1458 50.0521 40.7396C50.7501 42.1875 52.5521 42.8125 54.0001 42.1042C55.3542 41.4375 55.9896 39.8646 55.4792 38.4271L55.323 37.9896L56.9376 36.4375L58.5521 34.8854L59.0938 35.0729C59.3959 35.1771 59.8438 35.2604 60.1042 35.2604C60.5417 35.2604 60.7709 35.1979 61.6251 34.8438L61.948 34.7188L66.2813 38.0417L70.6251 41.3646L70.5417 41.7292C70.3959 42.4479 70.4792 43.2708 70.7813 43.8646C71.2917 44.9167 72.2396 45.4792 73.4792 45.4792C75.4688 45.4688 76.8751 43.4167 76.1667 41.5417L75.9688 41.0417L77.2917 39.6771L78.6146 38.3021L79.0209 38.4479C79.2501 38.5313 79.7292 38.5938 80.1042 38.5938C80.9792 38.6042 81.6771 38.2917 82.2605 37.625C83.948 35.7083 82.6146 32.7604 80.0521 32.7604C78.0417 32.7604 76.6355 34.6875 77.2709 36.5729L77.4792 37.1875L76.1771 38.5729C75.4584 39.3333 74.8646 39.9583 74.8438 39.9583C74.8334 39.9583 74.6459 39.8854 74.448 39.8021C73.8438 39.5521 72.7396 39.5938 72.1355 39.9063C71.8542 40.0417 71.5834 40.125 71.5209 40.0938C71.4063 40.0208 67.3855 36.9271 64.4896 34.6875C63.4688 33.9063 62.8855 33.375 62.9063 33.2813C62.9271 33.1979 62.9688 32.8438 63.0001 32.4896C63.0626 31.5625 62.8126 30.875 62.1459 30.2188C61.323 29.4063 60.2813 29.1458 59.1563 29.5ZM60.6771 31.0417C61.7084 31.4792 61.7084 33.0521 60.6771 33.5417C59.7396 33.9896 58.7292 33.3438 58.7292 32.3021C58.7292 31.75 58.9376 31.3854 59.4063 31.1042C59.8021 30.8542 60.1876 30.8438 60.6771 31.0417ZM80.8751 34.5521C81.4584 35.0104 81.6251 35.7813 81.2501 36.3854C80.698 37.3021 79.2709 37.2396 78.823 36.2813C78.6042 35.8333 78.6042 35.5833 78.7917 35.1146C79.1042 34.3854 80.2605 34.0729 80.8751 34.5521ZM53.7188 38.5417C54.0001 38.8438 54.0626 39 54.0626 39.3854C54.0626 40.2708 53.5417 40.8229 52.698 40.8229C51.573 40.8229 50.9167 39.4479 51.6355 38.6042C52.0001 38.1667 52.2396 38.0729 52.8542 38.125C53.2917 38.1563 53.4271 38.2188 53.7188 38.5417ZM74.2084 41.4271C75.2709 42.2604 74.7709 43.9167 73.448 43.9167C72.6042 43.9167 72.0417 43.375 72.0417 42.5729C72.0417 41.7188 72.5626 41.2188 73.448 41.2083C73.7813 41.2083 74.0105 41.2708 74.2084 41.4271Z" fill="white"/>
<path d="M57.7292 40.823C57.6042 40.8959 57.4167 41.073 57.3125 41.2084C57.1562 41.448 57.1354 41.9167 57.1042 46.6042C57.0833 50.8855 57.0521 51.7397 56.9375 51.698C56.8542 51.6667 56.5937 51.5834 56.3542 51.5105C56.125 51.4376 55.8854 51.3022 55.8333 51.2084C55.6354 50.8438 55.0729 50.6876 53.9687 50.6876H52.9271L52.7083 50.198L52.4896 49.7084L53.2187 48.9792C54.0521 48.1251 54.1667 47.9272 54.1667 47.3855C54.1667 46.823 53.6354 46.1147 52.4167 45.0522C51.4479 44.198 50.8854 44.2813 49.6875 45.4376L48.9687 46.1355L48.4687 45.9272L47.9687 45.7292L47.9167 44.5313C47.8646 43.2397 47.7812 43.0313 47.25 42.7084C46.9792 42.5417 46.7083 42.5105 45.5208 42.5105C43.9375 42.5105 43.6458 42.6042 43.2604 43.1772C43.0521 43.4897 43.0208 43.6563 43.0208 44.6355V45.7397L42.5729 45.9167C42.3333 46.0209 42.0937 46.1042 42.0417 46.1042C41.9896 46.1042 41.5833 45.7605 41.1458 45.3334C39.9271 44.1459 39.4896 44.1563 38.125 45.4376C36.9271 46.573 36.5625 47.2813 36.8854 47.9063C36.9479 48.0313 37.3333 48.4688 37.7292 48.8751L38.4583 49.6147L38.2708 50.1563L38.0729 50.6876H36.9792C36.0833 50.6876 35.8229 50.7292 35.5521 50.8959C34.9167 51.2813 34.8438 51.5105 34.8438 53.1355C34.8438 54.4167 34.875 54.6355 35.0521 54.9584C35.3854 55.5313 35.8125 55.6876 37.0312 55.6876H38.0833L38.2604 56.1772L38.4375 56.6563L37.7083 57.4063C36.6979 58.4584 36.5417 58.9688 37.0312 59.6876C37.1771 59.8959 37.2917 60.1147 37.2917 60.1563C37.2917 60.2084 37.1354 60.6667 36.9375 61.1667C35.8333 64.0417 35.6354 67.5938 36.3958 70.6147C37.9062 76.573 42.6979 81.1251 48.7292 82.3542C52.4167 83.1042 56.625 82.4063 59.7812 80.5209C61.5937 79.448 62.0104 78.9688 61.5937 78.4167C61.2292 77.9272 60.8542 77.9792 59.7604 78.6876C58.4792 79.5105 57.6979 79.8959 56.4271 80.323C54.6354 80.9167 53.8021 81.0522 51.8229 81.0522C49.8437 81.0522 49.0104 80.9167 47.2187 80.323C42.1875 78.6459 38.5208 74.2917 37.6458 68.9167C37.4479 67.7188 37.5104 64.9897 37.7604 63.8647C37.9062 63.198 38.3958 61.5834 38.5104 61.3855C38.5417 61.3334 38.6667 61.3959 38.7917 61.5105C39.1146 61.8126 39.6146 61.948 40 61.8334C40.1771 61.7813 40.3125 61.7605 40.3125 61.7813C40.3125 61.8022 40.1771 62.2292 40.0104 62.7397C39.4792 64.323 39.3437 65.3126 39.4062 67.198C39.4687 69.2084 39.7396 70.3751 40.5208 72.0105C42.6562 76.5001 46.9583 79.2292 51.8542 79.2292C57.8958 79.2292 63.0104 74.9063 64.125 68.8647C64.375 67.4688 64.2812 65.0522 63.9271 63.6772C63.3437 61.4688 62.2708 59.6042 60.6354 57.9688C60.0833 57.4167 59.2604 56.7188 58.8125 56.4167C58.1042 55.948 56.75 55.2501 56.125 55.0313C55.9687 54.9792 55.9583 54.9167 56.0417 54.698C56.1042 54.5417 56.1458 54.1147 56.1458 53.7501C56.1458 52.9584 56.0417 52.9792 57.4375 53.5626C59.1667 54.2917 60.7083 55.3751 62.1458 56.8542C64.0625 58.8438 65.3021 61.198 65.9062 64.0209C66.1667 65.2709 66.1667 68.3022 65.8958 69.5313C65.4583 71.5626 64.7708 73.1459 63.5937 74.9167C63.1458 75.5834 62.8125 76.1876 62.8125 76.3334C62.8125 76.6667 63.2187 77.0417 63.5833 77.0417C63.9479 77.0417 64.3542 76.6355 65.0625 75.5626C66.4375 73.4792 67.2917 71.1251 67.6562 68.3647L67.7187 67.8751H76.2083H84.6979L84.9479 67.6147C85.2812 67.2917 85.2812 66.8959 84.9479 66.573C84.7187 66.3438 84.6146 66.3126 83.8542 66.3126H83.0208V62.9792C83.0208 59.7813 83.0104 59.6355 82.8125 59.4376C82.5 59.1251 81.9479 59.1563 81.6771 59.5001C81.4687 59.7709 81.4583 59.8959 81.4583 63.0417V66.3126H80.0521H78.6458L78.6667 55.8647L78.6979 45.4272L80.0833 45.3959L81.4583 45.3647V50.9272C81.4583 56.3959 81.4583 56.5001 81.6771 56.7709C81.9479 57.1147 82.5 57.1459 82.8125 56.8334C83.0208 56.6251 83.0208 56.4897 83.0208 50.6563C83.0208 44.9272 83.0104 44.6876 82.8125 44.3647C82.5104 43.8751 82.0729 43.7917 79.8021 43.8334C77.6771 43.8647 77.5208 43.9063 77.2396 44.5001C77.1042 44.7917 77.0833 46.2397 77.0833 55.573V66.3126H76.7187H76.3542V57.8959C76.3542 49.7188 76.3437 49.4792 76.1458 49.1563C76.0312 48.9688 75.8125 48.7813 75.6562 48.7397C75.5 48.6876 74.4375 48.6563 73.3125 48.6563C71.3958 48.6563 71.25 48.6667 70.9687 48.8751C70.8125 48.9897 70.6146 49.2084 70.5521 49.3438C70.4479 49.5313 70.4167 51.5209 70.4167 57.948V66.3126H70.0521H69.6875V55.7813C69.6875 48.2397 69.6562 45.198 69.5729 45.0313C69.2812 44.4584 69.1875 44.4376 66.7708 44.4376C64.8646 44.4376 64.4896 44.4584 64.2812 44.6042C63.7604 44.9792 63.75 45.073 63.75 50.8647L63.7396 56.2605L63.3854 55.8438L63.0208 55.4272V51.7292C63.0208 47.5417 63.0208 47.5626 62.3021 47.5626C62.0312 47.5626 61.8437 47.6355 61.7083 47.7813C61.5208 47.9897 61.5104 48.2188 61.4792 51.0105C61.4583 52.6667 61.4271 54.0209 61.4062 54.0209C61.375 54.0209 61.1354 53.8647 60.8646 53.6667C60.5833 53.4688 59.9896 53.1042 59.5312 52.8542L58.6979 52.3959L58.6667 47.323L58.6458 42.2501H60.0417H61.4375L61.4792 43.5938C61.5104 44.7397 61.5417 44.9688 61.7083 45.1563C61.9687 45.4376 62.5312 45.448 62.8125 45.1667C63 44.9792 63.0208 44.823 63.0208 43.1772V41.3959L62.6667 41.0417L62.3125 40.6876H60.1458C58.6042 40.698 57.8958 40.7292 57.7292 40.823ZM46.3229 44.698C46.3854 46.0522 46.4583 46.4167 46.7917 46.7917C46.9583 46.9792 47.1458 47.1459 47.2083 47.1459C47.2604 47.1459 47.625 47.2813 48.0208 47.4584C49.2083 47.9792 49.5833 47.8647 50.7812 46.6355L51.2917 46.1042L51.8958 46.698C52.2292 47.0313 52.5 47.3438 52.5 47.4063C52.5 47.4688 52.1667 47.8438 51.7708 48.2397C51 49.0001 50.8125 49.3751 50.9479 49.9063C51.1146 50.573 51.5937 51.5834 51.8854 51.8855C52.1875 52.1876 52.2187 52.198 53.3854 52.2292L54.5833 52.2709V53.198V54.1251H53.4687C51.9687 54.1251 51.8333 54.2084 51.3333 55.4376C50.7083 56.9584 50.7292 57.0522 51.7187 58.073C52.1458 58.5209 52.5 58.9167 52.5 58.9688C52.5 59.0209 52.2292 59.3334 51.9062 59.6667L51.3125 60.2709L50.5208 59.4897C49.6979 58.698 49.4062 58.5417 48.8229 58.6355C48.4583 58.6876 47.2396 59.1876 46.8854 59.4376C46.5417 59.6772 46.3646 60.323 46.3542 61.3334V62.2292L45.9271 62.3022C45.6979 62.3438 45.3021 62.3438 45.0521 62.3126L44.6042 62.2397L44.5625 61.1042C44.5417 60.1563 44.5 59.9272 44.3125 59.6772C44.0312 59.3126 42.4167 58.6042 41.8437 58.6042C41.4792 58.6042 41.3542 58.6876 40.625 59.3959C39.6771 60.3126 39.625 60.323 38.9062 59.5209L38.4375 59.0001L39.2083 58.1772C40.2396 57.1042 40.2708 56.9376 39.7187 55.6042C39.1667 54.2605 39.0729 54.1876 37.5729 54.1251L36.4062 54.073L36.375 53.1563L36.3437 52.2501H37.4687C39.0521 52.2501 39.1042 52.2188 39.7812 50.6147C40.2812 49.448 40.2187 49.2084 39.1354 48.1042L38.3854 47.3438L39.0417 46.7084L39.6979 46.073L40.5104 46.8751C41.5521 47.9167 41.7917 47.9584 43.1667 47.3855C44.4271 46.8542 44.5208 46.7084 44.5625 45.3438C44.5833 44.7605 44.6146 44.2188 44.6354 44.1459C44.6771 44.0522 44.9062 44.0209 45.4896 44.0417L46.3021 44.073L46.3229 44.698ZM68.125 56.1563C68.125 65.8334 68.1146 66.3126 67.9375 66.3126C67.7812 66.3126 67.7396 66.1459 67.625 65.1355C67.3958 62.9688 66.8437 61.1667 65.8229 59.2501L65.3125 58.2917V52.1459V46.0001H66.7187H68.125V56.1563ZM74.7917 58.2397V66.3126H73.3854H71.9792V58.3126C71.9792 53.9063 72.0104 50.2709 72.0521 50.2397C72.0833 50.198 72.7187 50.1667 73.4583 50.1667H74.7917V58.2397ZM54.875 56.2709C55.3542 56.4063 55.9167 56.6147 56.1354 56.7188C56.4896 56.9063 56.5208 56.9584 56.4792 57.2709C56.3958 58.0001 57.2604 58.4272 57.8021 57.9376C58.0104 57.7501 58.0312 57.7501 58.5729 58.1772C59.1771 58.6355 60.0833 59.5626 60.5625 60.1876L60.8542 60.573L60.6354 60.8542C60.3437 61.2292 60.3646 61.573 60.6875 61.8959C60.9062 62.1251 61.0104 62.1563 61.3125 62.0938C61.6562 62.0313 61.6771 62.0522 61.875 62.4792C62.1771 63.1563 62.5729 64.6251 62.6562 65.3438L62.7292 66.0001H61.5208C60.4479 66.0001 60.2917 66.0209 60.1042 66.2084C59.7917 66.5209 59.8229 67.073 60.1667 67.3438C60.4062 67.5313 60.5937 67.5626 61.5729 67.5626C62.6771 67.5626 62.7083 67.573 62.7083 67.7917C62.7083 68.2709 62.3125 69.9272 62.0104 70.6876L61.7187 71.4688L61.3125 71.4376C60.5625 71.3647 60.1562 72.1042 60.625 72.698L60.8333 72.9584L60.4375 73.4688C59.9271 74.1147 59.1458 74.8855 58.5 75.3959L57.9896 75.8022L57.7604 75.5834C57.2292 75.0938 56.375 75.5313 56.4896 76.2501C56.5417 76.5938 56.5312 76.6042 55.9479 76.8647C55.3229 77.1355 53.9271 77.5001 53.1042 77.6147L52.6042 77.6772V76.4897C52.6042 75.448 52.5833 75.2813 52.3958 75.0834C52.1146 74.7813 51.5312 74.7813 51.25 75.0626C51.0625 75.2501 51.0417 75.4063 51.0417 76.4688C51.0417 77.5001 51.0208 77.6667 50.875 77.6667C50.4375 77.6667 48.5521 77.2084 47.8854 76.948C47.1458 76.6459 47.1354 76.6459 47.1667 76.2917C47.2396 75.5417 46.3646 75.0522 45.8854 75.5834C45.7812 75.698 45.6458 75.7501 45.5625 75.7084C45.1146 75.4584 43.9479 74.3751 43.4271 73.7292L42.8125 72.9584L43.0208 72.698C43.2917 72.3542 43.2812 72.0417 43.0104 71.6876C42.8229 71.448 42.7187 71.4063 42.3542 71.4376L41.9271 71.4688L41.625 70.6876C41.3333 69.9272 40.9375 68.2709 40.9375 67.7917C40.9375 67.573 40.9687 67.5626 42.0729 67.5626C43.0521 67.5626 43.2396 67.5313 43.4792 67.3438C43.8229 67.073 43.8542 66.5209 43.5417 66.2084C43.3542 66.0209 43.1979 66.0001 42.125 66.0001H40.9062L40.9792 65.3959C41.0937 64.4272 41.4583 63.198 41.9375 62.1667C42.4062 61.1459 42.7604 60.5834 42.9271 60.5834C42.9792 60.5834 43.0208 61.0834 43.0208 61.698C43.0208 62.948 43.1667 63.3542 43.7187 63.6355C44.125 63.8438 45.4271 63.9376 46.4062 63.823C47.1667 63.7292 47.2604 63.698 47.5729 63.3542L47.9167 62.9792V61.8438C47.9167 60.6042 47.9167 60.6147 48.6042 60.3438L49.0312 60.1772L49.8021 60.9584C51.0208 62.1876 51.4896 62.1876 52.7812 60.9688C53.8542 59.9584 54.1667 59.5105 54.1667 59.0001C54.1667 58.448 54.0521 58.2605 53.2083 57.3959L52.4896 56.6563L52.6771 56.2709L52.8646 55.8751L53.4375 55.948C53.75 55.9897 54.3958 56.1355 54.875 56.2709Z" fill="white"/>
<path d="M44.1347 48.1355C41.843 48.7605 40.3013 50.7813 40.3013 53.1563C40.2805 57.7813 45.8222 60.125 49.1138 56.8959C50.218 55.8125 50.8117 54.2813 50.6867 52.8021C50.5097 50.5625 48.9472 48.698 46.8013 48.1355C46.0826 47.948 44.8222 47.948 44.1347 48.1355ZM46.9992 49.8438C48.1763 50.4063 48.9992 51.5625 49.1242 52.8334C49.2597 54.0834 48.5826 55.5 47.5409 56.198C46.5097 56.875 45.1034 57.0209 44.0409 56.5417C43.3951 56.2605 42.5409 55.4584 42.2284 54.8438C41.4367 53.2813 41.9367 51.1875 43.3222 50.2292C44.0826 49.698 44.6555 49.5313 45.6242 49.573C46.2701 49.6042 46.6451 49.6771 46.9992 49.8438Z" fill="white"/>
<path d="M44.5314 51.0626C43.2918 51.7396 42.8439 53.0417 43.4377 54.2292C44.4898 56.3021 47.5731 55.6563 47.7814 53.323C47.8231 52.8021 47.7918 52.6459 47.5314 52.1459C47.0835 51.3021 46.5418 50.9584 45.5939 50.9271C45.0523 50.9063 44.7606 50.9376 44.5314 51.0626ZM46.0418 52.6876C46.646 53.3438 45.7085 54.3126 45.021 53.7292C44.6877 53.4584 44.6356 53.073 44.896 52.7396C45.1877 52.3751 45.7293 52.3542 46.0418 52.6876Z" fill="white"/>
<path d="M51.2812 66.2293C50.8229 66.7397 47.8125 71.9793 47.8125 72.271C47.8125 72.6772 48.1458 72.9793 48.5833 72.9793C49.0417 72.9793 49.0833 72.9272 50.7292 70.1356C51.4271 68.9481 52.0417 67.9481 52.0937 67.9168C52.1458 67.896 52.9167 68.3022 53.8229 68.8231C55.625 69.8751 56.0104 69.9897 56.3646 69.5522C56.625 69.2293 56.6146 68.8856 56.3333 68.5626C55.9687 68.1772 52.125 66.0001 51.7812 66.0001C51.6146 66.0001 51.4062 66.1043 51.2812 66.2293Z" fill="white"/>
<path d="M69.948 69.6981C69.4688 70.1668 69.573 70.396 70.8022 71.6355L71.9167 72.771L70.8022 73.9064C69.573 75.146 69.448 75.4272 69.9272 75.8751C70.4376 76.3543 70.6563 76.2293 72.2709 74.6147C74.2292 72.6564 74.2292 72.8855 72.2605 70.9272C70.6355 69.3022 70.4376 69.1981 69.948 69.6981Z" fill="white"/>
<path d="M75.3642 69.6981C74.885 70.1668 74.9892 70.396 76.2183 71.646L77.3329 72.771L76.2704 73.8439C75.0829 75.0314 74.9371 75.3439 75.3121 75.8231C75.4683 76.021 75.6246 76.1043 75.8746 76.1043C76.1663 76.1043 76.3954 75.9168 77.7496 74.5522C79.1767 73.1147 79.2913 72.9689 79.2288 72.6981C79.1871 72.5106 78.6142 71.8647 77.6663 70.9168C76.0413 69.3022 75.8538 69.1981 75.3642 69.6981Z" fill="white"/>
<path d="M80.9794 69.5627C80.6982 69.6981 80.4898 70.1252 80.5836 70.4168C80.6148 70.5314 81.1253 71.1147 81.6982 71.6981L82.7503 72.771L81.7607 73.7814C81.2086 74.3439 80.7086 74.9064 80.6357 75.0314C80.3753 75.5314 80.7815 76.1043 81.4065 76.1043C81.6669 76.1043 81.9482 75.8751 83.1982 74.6147C84.4169 73.3856 84.6878 73.0626 84.6878 72.8126C84.6878 72.5731 84.4169 72.2501 83.1461 70.9793C81.594 69.4272 81.4482 69.3335 80.9794 69.5627Z" fill="white"/>
</g>
</g>
<defs>
<filter id="filter0_d_337_931" x="0" y="0" width="120" height="120" filterUnits="userSpaceOnUse" color-interpolation-filters="sRGB">
<feFlood flood-opacity="0" result="BackgroundImageFix"/>
<feColorMatrix in="SourceAlpha" type="matrix" values="0 0 0 0 0 0 0 0 0 0 0 0 0 0 0 0 0 0 127 0" result="hardAlpha"/>
<feOffset dy="4"/>
<feGaussianBlur stdDeviation="10"/>
<feComposite in2="hardAlpha" operator="out"/>
<feColorMatrix type="matrix" values="0 0 0 0 0.160784 0 0 0 0 0.666667 0 0 0 0 0.890196 0 0 0 0.2 0"/>
<feBlend mode="normal" in2="BackgroundImageFix" result="effect1_dropShadow_337_931"/>
<feBlend mode="normal" in="SourceGraphic" in2="effect1_dropShadow_337_931" result="shape"/>
</filter>
<clipPath id="clip0_337_931">
<rect width="53.3333" height="53.3333" fill="white" transform="translate(33.3335 29.3333)"/>
</clipPath>
</defs>
</svg>
