<svg width="120" height="120" viewBox="0 0 120 120" fill="none" xmlns="http://www.w3.org/2000/svg">
<g filter="url(#filter0_d_337_867)">
<rect x="20" y="16" width="80" height="80" rx="30" fill="#FF5966"/>
<g clip-path="url(#clip0_337_867)">
<path d="M34.9898 31.5625C34.4065 31.7708 33.9898 32.1146 33.6773 32.6458L33.3856 33.1354L33.3544 41.2396C33.3335 49.3229 33.3335 49.3333 33.5523 49.8542C33.7919 50.4167 34.3127 50.9375 34.8544 51.1667C35.1356 51.2813 36.0731 51.3125 39.4273 51.3125C43.5106 51.3125 43.6565 51.3021 43.8544 51.1042C44.1148 50.8438 44.1252 50.3646 43.8648 50.0521L43.6669 49.8021L39.4794 49.75L35.2919 49.6979L35.094 49.4479C34.9065 49.2188 34.896 48.9479 34.896 42.7604V36.3125H45.3648H55.8335V37.9688C55.8335 39.6771 55.9273 40.1979 56.2502 40.375C56.5627 40.5417 56.9585 40.5 57.1877 40.2708C57.396 40.0625 57.4065 39.9583 57.3752 36.5208L57.344 33L57.0315 32.5417C56.6669 32.0313 56.1773 31.6771 55.6356 31.5208C55.0315 31.3542 35.469 31.3854 34.9898 31.5625ZM55.5731 33.2396C55.7919 33.4479 55.8335 33.5938 55.8335 34.125V34.75H45.3648H34.896V34.1667C34.896 33.6667 34.9377 33.5521 35.1981 33.2813L35.5002 32.9792H45.4169H55.3231L55.5731 33.2396Z" fill="white"/>
<path d="M38.7818 39.0208C38.2922 39.2187 38.1984 39.8333 38.5943 40.2187L38.8443 40.4792H45.4172C51.8443 40.4792 51.9797 40.4792 52.188 40.2708C52.5005 39.9583 52.4693 39.4062 52.1255 39.1354C51.8547 38.9167 51.7713 38.9167 45.4276 38.9271C41.8963 38.9271 38.9068 38.9687 38.7818 39.0208Z" fill="white"/>
<path d="M62.0418 39.1353C61.698 39.4062 61.6668 39.9582 61.9793 40.2707C62.1876 40.4791 62.323 40.4791 71.6772 40.4791H81.1668L81.4689 40.7812C81.7293 41.052 81.7709 41.1666 81.7709 41.6666V42.2499H76.2084C70.7501 42.2499 70.6459 42.2499 70.3751 42.4687C70.0314 42.7395 70.0001 43.2916 70.3126 43.6041C70.5209 43.8124 70.6564 43.8124 76.1459 43.8124H81.7709V49.4166C81.7709 55.6457 81.8022 55.3749 81.0626 55.5832C80.8543 55.6353 80.0834 55.6874 79.3543 55.6874C78.1564 55.6874 78.0001 55.7082 77.8126 55.8957C77.5522 56.1562 77.5418 56.6666 77.8022 56.927C77.9168 57.0416 78.1772 57.1666 78.3855 57.2082C79.0209 57.3228 81.3647 57.1978 81.7709 57.0207C82.3022 56.7916 82.7918 56.3541 83.0522 55.8541C83.2814 55.427 83.2814 55.4166 83.3126 48.2916C83.3334 42.8645 83.3126 41.0416 83.2084 40.6874C83.0314 40.0207 82.198 39.2082 81.5418 39.0416C81.1876 38.9478 78.5418 38.9166 71.6876 38.9166C62.3647 38.9166 62.323 38.9166 62.0418 39.1353Z" fill="white"/>
<path d="M41.23 42.4063C40.8446 42.6146 40.7405 43.125 41.0217 43.4896L41.2196 43.7604L45.3446 43.7917C49.3655 43.8125 49.48 43.8125 49.6884 43.6042C50.0009 43.2917 49.9696 42.7396 49.6259 42.4688C49.355 42.2605 49.2405 42.25 45.428 42.25C42.2092 42.2605 41.4592 42.2813 41.23 42.4063Z" fill="white"/>
<path d="M58.7511 42.3125C55.647 42.6875 53.0636 43.6354 50.8032 45.2395C49.7095 46.0104 47.9282 47.7916 47.1574 48.8854C45.8449 50.7291 44.8032 53.2187 44.4178 55.427C44.147 56.9687 44.1678 59.4479 44.4595 60.9687C45.5949 66.7187 49.6157 71.302 55.1261 73.125C57.2928 73.8333 60.0949 74.0833 62.2095 73.7395L62.5949 73.6875L62.6261 76.3437L62.6574 79L62.9699 79.4583C63.3449 79.9791 63.8345 80.3333 64.3866 80.4791C64.647 80.552 68.2616 80.5729 74.8657 80.5625C86.0532 80.5312 85.1886 80.5833 85.9282 79.8437C86.6574 79.1145 86.6157 79.7395 86.647 70.7604C86.6678 62.677 86.6678 62.6666 86.4491 62.1458C86.2095 61.5833 85.6886 61.0625 85.147 60.8333C84.8657 60.7187 83.8657 60.6875 80.2095 60.6875H75.6157L75.6991 59.9791C75.8345 58.8229 75.772 56.552 75.5741 55.427C74.8345 51.125 72.2303 47.177 68.5949 44.8333C66.897 43.7291 64.6261 42.8437 62.7095 42.5208C61.7199 42.3437 59.4386 42.2291 58.7511 42.3125ZM62.5532 44.0729C67.5532 44.9479 71.897 48.7187 73.522 53.6145C74.0428 55.2083 74.2095 56.3333 74.1991 58.2395C74.1886 59.1562 74.1366 60.0729 74.0949 60.2708L74.0011 60.6354H73.1261C72.5949 60.6354 72.2511 60.5937 72.2616 60.5312C72.6157 58.2708 72.4491 56.0104 71.7616 54.0104C71.2511 52.5208 70.0949 50.552 69.6157 50.3645C69.2824 50.2395 68.8657 50.427 68.647 50.8229C68.4699 51.1458 68.397 50.9791 69.3553 52.5416C69.9491 53.5104 70.4282 54.7395 70.6782 55.9583C70.8866 56.9583 70.9178 58.8854 70.7407 59.927L70.6053 60.6875H67.522C64.1157 60.6875 63.9491 60.7187 63.3032 61.375C62.6678 62.0208 62.6574 62.0208 62.6053 65.4791L62.5532 68.6562L62.0324 68.7916C61.2511 69 58.8761 68.9791 57.8761 68.7708C56.647 68.5 55.4178 68.0208 54.4595 67.4375C53.0428 66.5729 53.0324 66.5729 52.7199 66.7395C52.3449 66.9479 52.1574 67.3645 52.2824 67.6979C52.5116 68.302 55.1053 69.677 56.8032 70.1145C58.3345 70.5 59.7616 70.625 61.147 70.4791C61.7928 70.4166 62.3657 70.3541 62.4386 70.3437C62.5741 70.3229 62.6574 71.927 62.522 72.0625C62.3241 72.2604 60.0324 72.3958 58.772 72.2708C52.2928 71.6354 47.2407 67.0416 45.9803 60.625C45.6991 59.2395 45.7303 56.7083 46.0324 55.2708C47.1053 50.1979 50.7407 46.1354 55.6053 44.552C56.4595 44.2708 57.6782 44.0208 58.8553 43.875C59.5116 43.7916 61.5949 43.9062 62.5532 44.0729ZM84.8449 62.5104C85.0636 62.7187 85.1053 62.8645 85.1053 63.3958V64.0208H74.6366H64.1678V63.375C64.1678 62.8541 64.2095 62.6875 64.397 62.4895L64.6157 62.25H74.6053H84.5949L84.8449 62.5104ZM85.1053 72V78.4166L84.8032 78.7187L84.5011 79.0208H74.5845H64.6782L64.4282 78.7604L64.1678 78.5104V72.0416V65.5833H74.6366H85.1053V72Z" fill="white"/>
<path d="M58.7294 45.6874C54.7086 46.1457 51.2294 48.3957 49.219 51.8332C47.1252 55.427 46.9898 59.8124 48.8544 63.552C49.8752 65.604 50.3961 66.1353 51.0106 65.7395C51.1461 65.6457 51.3127 65.4582 51.3752 65.3228C51.5002 65.0415 51.469 64.9686 50.6461 63.6249C49.6252 61.9478 49.1356 60.1457 49.1461 58.0311C49.1461 56.6249 49.2919 55.729 49.6981 54.5311C50.9586 50.8436 54.2711 48.0207 58.1252 47.3436C59.1773 47.1665 61.1148 47.1874 62.1252 47.4061C63.3335 47.6561 64.5731 48.1353 65.5419 48.729C67.1044 49.6874 66.9377 49.6145 67.2606 49.4374C67.6565 49.2186 67.844 48.802 67.719 48.4686C67.521 47.9686 65.521 46.8124 63.9273 46.2811C62.344 45.7499 60.2815 45.5103 58.7294 45.6874Z" fill="white"/>
<path d="M59.7406 49.0208C59.3343 49.1771 59.2197 49.4375 59.2301 50.1979C59.2301 50.8229 59.2614 50.9479 59.4697 51.1146C59.6051 51.2292 59.8447 51.3125 60.001 51.3125C60.1572 51.3125 60.3968 51.2292 60.5322 51.1146C60.7406 50.9479 60.7718 50.8229 60.7718 50.1875C60.7822 49.5729 60.7406 49.4063 60.5739 49.2396C60.3135 48.9896 60.0114 48.9063 59.7406 49.0208Z" fill="white"/>
<path d="M54.7397 52.3541C54.4168 52.4791 54.2397 52.7499 54.2397 53.0937C54.2397 53.3645 54.5002 53.677 56.0314 55.2083C57.7189 56.8958 57.8231 57.0312 57.7085 57.2499C57.5002 57.6353 57.5522 58.6458 57.8127 59.177C58.6147 60.8228 61.021 60.9791 62.0002 59.4374L62.3022 58.9687L65.4689 58.9166C68.5627 58.8645 68.646 58.8541 68.8647 58.6353C69.146 58.3541 69.1668 57.8541 68.9064 57.5624C68.7293 57.3645 68.5939 57.3541 65.5522 57.3541H62.396L62.0731 56.8333C61.6147 56.0833 60.9064 55.6874 60.021 55.6874C59.6564 55.6874 59.2606 55.7395 59.146 55.802C58.9481 55.9062 58.7502 55.7395 57.146 54.1458C56.1668 53.177 55.271 52.3541 55.1564 52.3229C55.0418 52.2916 54.8543 52.302 54.7397 52.3541ZM60.5939 57.4791C61.2293 58.0728 60.5418 59.2187 59.7189 58.9062C59.3439 58.7708 59.1772 58.5103 59.1668 58.0937C59.1668 57.3437 60.0418 56.9583 60.5939 57.4791Z" fill="white"/>
<path d="M51.0936 57.5625C50.8332 57.8542 50.854 58.3542 51.1353 58.6354C51.3228 58.8333 51.479 58.8646 52.0936 58.8646C52.7394 58.8646 52.854 58.8333 53.0311 58.6146C53.2915 58.3021 53.2811 57.8229 53.0207 57.5625C52.7186 57.2604 51.3644 57.2604 51.0936 57.5625Z" fill="white"/>
<path d="M59.4696 65.052C59.2613 65.2186 59.2301 65.3436 59.2301 65.9999C59.2196 66.6978 59.2405 66.7603 59.5113 66.9999C59.8655 67.302 60.0946 67.3124 60.4488 67.0416C60.7821 66.7812 60.9071 66.1145 60.7405 65.4999C60.5634 64.8541 59.9696 64.6457 59.4696 65.052Z" fill="white"/>
<path d="M67.8128 68.3958C67.5003 68.7083 67.5315 69.2604 67.8753 69.5312C68.1461 69.75 68.2399 69.75 74.5524 69.75C79.9586 69.75 80.9899 69.7292 81.2399 69.5938C81.719 69.3542 81.8024 68.9062 81.4482 68.4583L81.2399 68.1875H74.6253C68.1565 68.1875 68.0211 68.1875 67.8128 68.3958Z" fill="white"/>
<path d="M70.3331 71.7291C69.9997 72.0416 70.0206 72.5833 70.3852 72.8749C70.656 73.0833 70.7289 73.0937 74.6977 73.0624C79.1456 73.0312 78.9893 73.052 79.1247 72.3854C79.1768 72.1145 79.1352 71.9999 78.9268 71.7916L78.656 71.5208H74.6039C70.6768 71.5208 70.5518 71.5312 70.3331 71.7291Z" fill="white"/>
<path d="M67.8327 75.0938C67.5098 75.4375 67.5307 75.9271 67.8744 76.1979C68.1452 76.4167 68.239 76.4167 74.6557 76.4167H81.1557L81.4057 76.1563C81.5515 76.0209 81.6661 75.7813 81.6661 75.6354C81.6661 75.4896 81.5515 75.25 81.4057 75.1146L81.1557 74.8542H74.6036H68.0515L67.8327 75.0938Z" fill="white"/>
<path d="M38.8028 45.6979C38.2924 45.9896 38.1987 46.4271 38.5528 46.875L38.7612 47.1458H42.4591C46.0112 47.1458 46.157 47.1354 46.3549 46.9375C46.6153 46.6771 46.6257 46.1979 46.3653 45.8854L46.1674 45.6354L42.5841 45.6146C40.1049 45.5938 38.9487 45.625 38.8028 45.6979Z" fill="white"/>
<path d="M74.7188 46.5208C74.2604 46.7083 74.125 47.4167 74.4792 47.7708C74.6771 47.9687 74.8229 47.9792 76.7084 47.9792H78.7396L78.9479 47.7083C79.0729 47.5521 79.1667 47.3646 79.1667 47.2917C79.1667 47.0208 78.9271 46.6458 78.6771 46.5312C78.375 46.3958 75.0625 46.3854 74.7188 46.5208Z" fill="white"/>
<path d="M76.9277 49.8542C76.4173 50.0521 76.2611 50.7083 76.6152 51.1042C76.7819 51.2812 76.9382 51.3125 77.7715 51.3125C78.6882 51.3125 78.7507 51.3021 78.9486 51.0417C79.0736 50.8854 79.1673 50.6979 79.1673 50.625C79.1673 50.3229 78.9069 49.9583 78.6152 49.8542C78.2507 49.7292 77.2298 49.7292 76.9277 49.8542Z" fill="white"/>
<path d="M38.1766 59.1667C37.6974 59.375 37.1974 59.8334 36.9474 60.3125C36.7182 60.7396 36.7182 60.7396 36.687 67.9167C36.6557 76.0104 36.6349 75.7188 37.4266 76.5C38.2286 77.2917 37.6453 77.25 48.2286 77.25C57.6349 77.25 57.6766 77.25 57.9578 77.0313C58.3016 76.7604 58.3328 76.2084 58.0203 75.8959C57.812 75.6875 57.6766 75.6875 48.3224 75.6875H38.8328L38.5307 75.3854L38.2286 75.0834V69.5V63.9271L40.5307 63.8959C42.8016 63.8646 42.8328 63.8646 43.0307 63.6146C43.2911 63.3021 43.2807 62.8229 43.0203 62.5625C42.8224 62.3646 42.6766 62.3542 40.5099 62.3542H38.2078L38.2495 61.6667C38.312 60.6354 38.4161 60.5834 40.1557 60.5834C41.5932 60.5834 42.1245 60.4792 42.2911 60.1667C42.4578 59.8542 42.4161 59.4584 42.187 59.2292C41.9995 59.0417 41.8432 59.0209 40.2391 59.0209C39.0307 59.0313 38.3953 59.0729 38.1766 59.1667Z" fill="white"/>
<path d="M41.0522 67.6249C40.8022 67.9374 40.7814 68.0728 40.948 68.4374C41.1459 68.8541 41.5105 68.9374 43.073 68.8958C44.4272 68.8645 44.5105 68.8541 44.698 68.6145C44.9689 68.2812 44.948 67.8541 44.6564 67.5833C44.4272 67.3645 44.3126 67.3541 42.8439 67.3541H41.2605L41.0522 67.6249Z" fill="white"/>
<path d="M41.0732 70.9584C40.8649 71.1667 40.8232 71.2813 40.8753 71.5521C41.0107 72.1979 40.9795 72.1979 44.0628 72.2292L46.8753 72.2604L47.1357 72C47.4691 71.6667 47.4795 71.2188 47.1566 70.9167C46.917 70.6979 46.8441 70.6875 44.1253 70.6875H41.3441L41.0732 70.9584Z" fill="white"/>
</g>
</g>
<defs>
<filter id="filter0_d_337_867" x="0" y="0" width="120" height="120" filterUnits="userSpaceOnUse" color-interpolation-filters="sRGB">
<feFlood flood-opacity="0" result="BackgroundImageFix"/>
<feColorMatrix in="SourceAlpha" type="matrix" values="0 0 0 0 0 0 0 0 0 0 0 0 0 0 0 0 0 0 127 0" result="hardAlpha"/>
<feOffset dy="4"/>
<feGaussianBlur stdDeviation="10"/>
<feComposite in2="hardAlpha" operator="out"/>
<feColorMatrix type="matrix" values="0 0 0 0 1 0 0 0 0 0.34902 0 0 0 0 0.4 0 0 0 0.2 0"/>
<feBlend mode="normal" in2="BackgroundImageFix" result="effect1_dropShadow_337_867"/>
<feBlend mode="normal" in="SourceGraphic" in2="effect1_dropShadow_337_867" result="shape"/>
</filter>
<clipPath id="clip0_337_867">
<rect width="53.3333" height="53.3333" fill="white" transform="translate(33.3335 29.3333)"/>
</clipPath>
</defs>
</svg>
