<svg width="120" height="120" viewBox="0 0 120 120" fill="none" xmlns="http://www.w3.org/2000/svg">
<g filter="url(#filter0_d_337_786)">
<rect x="20" y="16" width="80" height="80" rx="30" fill="#FFC65D"/>
<path d="M49.2187 29.5219C48.2708 29.8032 47.5937 30.1886 46.9478 30.8344C46.2812 31.5011 45.8958 32.1261 45.6145 33.0219C45.3749 33.8032 45.3333 36.6573 45.5624 37.5011C45.7603 38.2407 46.1978 39.0636 46.677 39.5844C46.9895 39.9282 47.0833 40.1053 47.0833 40.3969V40.7615L43.9166 41.824C42.0624 42.4386 40.6145 42.9803 40.4062 43.1365C39.927 43.4907 39.4999 44.1469 39.427 44.6678C39.3333 45.3344 39.4166 59.7615 39.5208 60.0219L39.6041 60.2615H37.2812C35.9999 60.2615 34.7812 60.3136 34.5624 60.3657C34.0937 60.5011 33.4687 61.1678 33.3853 61.6365C33.3541 61.824 33.3333 63.6782 33.3541 65.7511C33.3853 69.3865 33.3958 69.5323 33.6041 69.8136C33.7187 69.9698 33.9791 70.2094 34.1666 70.3344C34.5103 70.574 34.5103 70.574 39.0728 70.574H43.6458V75.7303V80.8865H40.2083H36.7708V81.7719V82.6573H59.9999H83.2291V81.7719V80.8865H80.8124L78.3853 80.8761L78.7916 80.6469C79.0103 80.5219 79.5937 80.1365 80.0833 79.7928C86.1353 75.5428 88.3228 67.5844 85.2812 60.8344C83.8333 57.6157 81.2395 54.9178 78.0728 53.3448C77.4478 53.0323 76.6562 52.699 76.3333 52.5948C75.9999 52.4907 75.7291 52.3761 75.7291 52.3344C75.7291 52.3032 75.8541 52.0428 76.0103 51.7615C76.2499 51.3344 76.302 51.1261 76.302 50.5219C76.2916 49.6261 76.0312 49.0011 75.427 48.4073C75.0312 48.0219 74.2395 47.6886 66.7603 44.699L58.5312 41.4073L56.2499 41.0219C53.9999 40.6573 53.9583 40.6365 53.9583 40.3969C53.9583 40.2511 54.1666 39.8969 54.4478 39.5532C55.4583 38.3136 55.7916 37.0636 55.6978 34.8448C55.6249 32.9386 55.2291 31.9386 54.1353 30.8553C52.802 29.5323 50.9166 29.0219 49.2187 29.5219ZM51.9999 31.3865C52.677 31.7198 53.302 32.3657 53.6249 33.0532C53.8853 33.5948 53.9062 33.7719 53.9374 35.2094C53.9687 36.6261 53.9478 36.8448 53.7395 37.3969C53.1249 39.0428 51.2603 39.9803 49.5833 39.4907C48.4374 39.1573 47.4478 38.0844 47.1978 36.9073C46.9478 35.7823 47.0937 33.6573 47.4687 32.9282C47.8437 32.2094 48.7499 31.4594 49.5833 31.1886C50.1041 31.0219 51.4791 31.1365 51.9999 31.3865ZM49.9478 41.2928C50.5312 41.3761 51.3437 41.3136 52.0103 41.1469C52.2916 41.074 52.2916 41.074 52.2916 41.5844V42.0948L55.177 42.5844L58.0624 43.074L66.0312 46.2511C74.8228 49.7615 74.5833 49.6365 74.5833 50.5115C74.5833 50.8865 74.5208 51.0323 74.2708 51.2823C73.927 51.6365 73.427 51.7615 72.9687 51.6261C72.7916 51.574 69.6458 50.4073 65.9583 49.0219L59.2708 46.5115H57.4999H55.7291V63.699V80.8865H53.5416H51.3541V69.324V57.7615H50.5208H49.6874V69.324V80.8865H47.552H45.4166V75.7303V70.574H45.6666C45.9687 70.574 46.5208 70.2094 46.8124 69.8136C47.0208 69.5323 47.0312 69.3865 47.0624 65.699C47.0833 63.1678 47.0624 61.7511 46.9791 61.4907C46.8333 60.9803 46.3437 60.5011 45.8228 60.3657L45.4166 60.2511V53.3865V46.5115H44.5312H43.6458V52.9282C43.6458 58.6782 43.6249 59.3761 43.4791 59.6365C42.9583 60.5115 41.6562 60.4386 41.2083 59.5011C41.052 59.1573 41.0416 58.5115 41.0624 51.9907C41.0937 44.9803 41.0937 44.8448 41.302 44.6365C41.4374 44.5115 42.927 43.9594 45.1562 43.2094L48.802 41.9803L48.8333 41.5219C48.8645 41.1157 48.8853 41.0844 49.0937 41.1469C49.2187 41.1782 49.6041 41.2511 49.9478 41.2928ZM63.8333 50.074C68.2291 51.7198 68.6249 51.8865 68.3124 51.9594C66.927 52.324 65.9687 52.6157 65.2187 52.9178C62.3541 54.0844 59.7499 56.3344 57.9478 59.2094L57.3958 60.0844V54.1886V48.2823H58.2083C58.9999 48.2719 59.0937 48.3032 63.8333 50.074ZM72.427 53.4907C77.7916 54.0115 82.1666 57.3865 84.1041 62.5011C84.6874 64.0115 84.8333 64.9698 84.8437 67.0844C84.8437 68.6157 84.802 69.2615 84.6562 69.949C83.4895 75.3448 79.3541 79.4803 73.9583 80.6469C73.2708 80.7928 72.6249 80.8344 71.0937 80.8344C69.3749 80.824 68.9895 80.7928 68.1249 80.5844C65.6249 79.9594 63.4791 78.8032 61.7291 77.1365C56.1041 71.7719 55.9999 62.9073 61.4999 57.449C64.052 54.9073 67.3333 53.5219 71.0416 53.4073C71.2395 53.3969 71.8645 53.4386 72.427 53.4907ZM43.0728 63.0844C41.0624 64.4282 40.8541 64.5323 40.2083 64.5323C39.5624 64.5323 39.3541 64.4282 37.3437 63.0844L35.7812 62.0323H40.2083H44.6353L43.0728 63.0844ZM36.7603 64.7719C38.7603 66.1053 39.1041 66.2511 40.2603 66.2511C41.3853 66.2407 41.5728 66.1678 43.6874 64.7511C44.4687 64.2198 45.177 63.7615 45.2603 63.7303C45.3958 63.6886 45.4166 64.0532 45.4166 66.2928V68.9073H40.2603H35.1041V66.2928C35.1041 64.2407 35.1353 63.699 35.2395 63.7615C35.302 63.8032 35.9895 64.2615 36.7603 64.7719ZM57.8124 74.9178C58.9478 76.949 60.8958 78.949 63.0728 80.3136L63.9895 80.8865H60.6978H57.3958V77.6053C57.3958 75.8032 57.4166 74.324 57.4374 74.324C57.4583 74.324 57.6353 74.5948 57.8124 74.9178Z" fill="white"/>
<path d="M69.6362 55.2303C67.6466 55.4803 65.3029 56.4803 63.7404 57.7303L63.355 58.0324L63.6258 58.3345C63.7716 58.5116 64.0216 58.8032 64.1779 58.9803L64.4696 59.3241L65.23 58.772C65.6571 58.4803 66.3758 58.0532 66.8341 57.8345C67.6883 57.4386 69.4696 56.9282 70.0112 56.9282H70.3133V58.1782V59.4282H71.1987H72.0841V58.1678V56.9074L72.6675 56.9803C76.1466 57.4074 79.4383 60.0324 80.7821 63.4386C81.0321 64.0636 81.4487 65.7824 81.4591 66.1678C81.4591 66.272 81.1362 66.3032 80.2091 66.3032H78.9591V67.1886V68.0741H80.2196H81.4696L81.3966 68.5636C81.1466 70.3136 80.3654 72.1991 79.3862 73.4282C79.2091 73.647 79.0633 73.8657 79.0633 73.897C79.0737 73.9907 80.2091 74.897 80.3133 74.897C80.4904 74.897 81.3341 73.6782 81.8237 72.7511C84.2612 68.0428 83.4279 62.4595 79.6987 58.7095C77.9071 56.9074 75.6987 55.7616 73.1883 55.3136C72.355 55.1678 70.4487 55.1261 69.6362 55.2303Z" fill="white"/>
<path d="M61.8029 59.6365C60.7508 60.9282 59.8549 62.8136 59.4174 64.6053C59.1883 65.5845 59.1049 67.7407 59.2612 68.8032C59.657 71.4595 60.8341 73.824 62.7195 75.6886C66.4695 79.4178 72.0529 80.2511 76.7612 77.8136C77.6883 77.324 78.907 76.4803 78.907 76.3032C78.907 76.199 78.0008 75.0636 77.907 75.0532C77.8758 75.0532 77.657 75.199 77.4383 75.3761C76.2091 76.3553 74.3237 77.1365 72.5841 77.3865L72.0841 77.4595V76.2095V74.949H71.1987H70.3133V76.199C70.3133 77.1261 70.282 77.449 70.1883 77.449C69.7924 77.4386 68.0737 77.022 67.4487 76.772C65.0529 75.824 62.8966 73.7928 61.8237 71.4803C61.4174 70.6053 61.0945 69.5011 60.9904 68.6574L60.9174 68.074H62.1779H63.4383V67.1886V66.3032H62.1883H60.9383V66.0011C60.9383 65.4595 61.4487 63.6782 61.8445 62.824C62.0633 62.3657 62.4904 61.647 62.782 61.2199L63.3341 60.4594L62.9904 60.1678C62.8133 60.0011 62.5216 59.7511 62.3445 59.6157L62.032 59.3553L61.8029 59.6365Z" fill="white"/>
<path d="M70.3125 64.6365V68.074H72.4479H74.5833V67.1886V66.3031H73.3333H72.0833V63.7511V61.199H71.1979H70.3125V64.6365Z" fill="white"/>
<path d="M33.3335 81.7719V82.6573H34.2189H35.1147L35.0835 81.7928L35.0522 80.9386L34.1981 80.9074L33.3335 80.8761V81.7719Z" fill="white"/>
<path d="M84.9689 80.9594C84.9272 80.9907 84.896 81.3969 84.896 81.8448V82.6573H85.7814H86.6668V81.7719V80.8865H85.8543C85.4064 80.8865 85.0002 80.9178 84.9689 80.9594Z" fill="white"/>
</g>
<defs>
<filter id="filter0_d_337_786" x="0" y="0" width="120" height="120" filterUnits="userSpaceOnUse" color-interpolation-filters="sRGB">
<feFlood flood-opacity="0" result="BackgroundImageFix"/>
<feColorMatrix in="SourceAlpha" type="matrix" values="0 0 0 0 0 0 0 0 0 0 0 0 0 0 0 0 0 0 127 0" result="hardAlpha"/>
<feOffset dy="4"/>
<feGaussianBlur stdDeviation="10"/>
<feComposite in2="hardAlpha" operator="out"/>
<feColorMatrix type="matrix" values="0 0 0 0 1 0 0 0 0 0.776471 0 0 0 0 0.364706 0 0 0 0.3 0"/>
<feBlend mode="normal" in2="BackgroundImageFix" result="effect1_dropShadow_337_786"/>
<feBlend mode="normal" in="SourceGraphic" in2="effect1_dropShadow_337_786" result="shape"/>
</filter>
</defs>
</svg>
